<?xml version="1.0" standalone="no"?>
<!DOCTYPE svg PUBLIC "-//W3C//DTD SVG 20010904//EN"
 "http://www.w3.org/TR/2001/REC-SVG-20010904/DTD/svg10.dtd">
<svg version="1.0" xmlns="http://www.w3.org/2000/svg"
 width="322.000000pt" height="204.000000pt" viewBox="0 0 322.000000 204.000000"
 preserveAspectRatio="xMidYMid meet">

<g transform="translate(0.000000,204.000000) scale(0.100000,-0.100000)"
fill="#000000" stroke="none">
<path d="M2062 1883 c-33 -6 -99 -73 -107 -108 -12 -52 -14 -55 -43 -55 -36 0
-85 -33 -125 -83 -56 -68 -48 -174 17 -245 49 -55 144 -77 213 -51 33 12 103
77 103 96 0 7 5 13 10 13 6 0 10 -5 10 -11 0 -22 43 -70 80 -89 101 -51 218 0
251 109 31 103 -54 221 -159 221 -42 0 -44 1 -39 26 11 61 -37 144 -100 170
-32 14 -65 16 -111 7z m141 -45 c37 -26 37 -51 0 -37 -35 13 -63 38 -63 55 0
16 23 9 63 -18z m-167 -164 c40 -19 65 -54 39 -54 -26 0 -79 26 -99 49 -19 21
-19 21 3 21 13 0 38 -7 57 -16z m254 -22 c0 -14 -33 -40 -72 -57 -67 -27 -52
13 17 49 33 18 55 20 55 8z"/>
<path d="M2164 1841 c4 -6 16 -16 28 -22 15 -8 18 -8 14 0 -4 6 -16 16 -28 22
-15 8 -18 8 -14 0z"/>
<path d="M1995 1668 c11 -7 22 -11 24 -9 2 1 8 -3 13 -11 8 -10 9 -10 5 2 -2
8 -9 15 -14 15 -6 0 -15 3 -19 8 -4 4 -12 7 -18 7 -6 0 -2 -6 9 -12z"/>
<path d="M2219 1620 c-13 -10 -19 -19 -13 -20 7 0 22 9 35 20 13 10 19 19 13
20 -7 0 -22 -9 -35 -20z"/>
<path d="M1275 1806 c-17 -7 -36 -20 -43 -28 -7 -9 -25 -21 -40 -27 -19 -8
-49 -46 -97 -124 -150 -245 -369 -560 -404 -581 -5 -3 -44 10 -87 30 -91 42
-209 74 -269 74 -62 0 -136 -25 -173 -60 -58 -53 -93 -161 -73 -223 22 -65 35
-70 185 -71 74 -1 138 -4 141 -8 4 -4 -18 -31 -49 -61 -60 -56 -69 -87 -45
-141 14 -30 136 -95 194 -102 80 -12 167 29 251 116 l41 42 70 -35 c82 -42 89
-49 98 -105 10 -64 61 -157 107 -196 56 -48 128 -64 200 -45 l53 14 20 -40
c44 -87 164 -140 270 -118 153 32 234 182 168 309 l-21 42 28 27 28 27 25 -37
c71 -104 184 -122 298 -46 l44 30 25 -24 c75 -72 196 -71 272 2 l27 26 31 -26
c70 -60 161 -58 239 3 112 88 301 396 301 488 0 104 -128 96 -216 -12 -20 -24
-17 -14 15 50 46 94 57 138 41 178 -9 25 -8 33 13 55 13 14 45 58 70 97 26 39
54 77 62 84 9 7 15 29 15 53 0 35 -6 46 -44 83 -29 28 -64 49 -99 60 -52 16
-56 16 -93 -2 -29 -14 -47 -34 -71 -79 -37 -69 -65 -171 -56 -203 4 -15 1 -22
-9 -22 -35 0 -68 -43 -113 -152 -26 -62 -49 -114 -50 -116 -5 -6 -115 108
-115 118 0 6 -12 28 -26 49 -49 75 -146 118 -236 106 -61 -9 -153 -68 -199
-130 -39 -50 -49 -55 -49 -21 0 54 -75 126 -153 147 -161 43 -362 -128 -464
-394 l-23 -62 5 70 c19 225 112 524 204 660 25 35 28 103 7 143 -32 61 -122
123 -178 122 -13 -1 -37 -7 -53 -14z m115 -78 c18 -13 42 -40 54 -60 21 -38
21 -38 2 -70 -55 -93 -88 -163 -119 -253 -127 -367 -144 -797 -34 -857 12 -6
38 -14 57 -17 47 -8 51 -38 11 -84 -76 -85 -179 -90 -252 -10 -37 39 -55 79
-71 153 -15 74 -32 89 -167 155 l-82 40 -51 -58 c-63 -72 -138 -117 -194 -117
-46 0 -158 51 -168 76 -7 17 25 49 127 126 37 29 64 55 60 59 -25 22 -186 52
-283 54 -58 0 -111 4 -117 8 -18 11 -9 89 13 128 31 52 67 73 137 77 83 5 157
-14 290 -76 l106 -50 87 111 c88 113 238 336 353 525 43 70 70 104 86 108 12
3 32 17 44 30 27 31 68 31 111 2z m1589 -234 c53 -34 57 -50 24 -88 -16 -17
-46 -59 -68 -94 -22 -34 -47 -62 -55 -62 -24 0 -78 37 -85 59 -11 36 32 158
73 204 21 23 57 17 111 -19z m-1190 -289 c16 -8 41 -29 56 -47 23 -27 26 -38
21 -71 -14 -88 -105 -217 -153 -217 -36 0 -37 21 -3 91 64 136 16 158 -71 33
-44 -64 -95 -173 -109 -232 -40 -173 99 -230 224 -92 51 57 157 222 183 287
47 116 146 229 220 254 51 17 117 6 158 -25 35 -27 75 -91 75 -120 0 -8 9 -17
19 -21 27 -8 81 -71 81 -94 0 -10 -13 -48 -30 -84 -36 -81 -70 -200 -70 -247
l1 -35 28 32 c44 47 154 239 180 313 13 36 43 113 68 173 45 107 45 107 79
107 63 0 124 -47 124 -96 0 -12 -27 -77 -59 -145 -68 -144 -108 -259 -118
-337 l-6 -54 24 15 c29 19 78 83 151 197 51 79 126 160 147 160 25 0 18 -28
-31 -123 -74 -141 -122 -211 -198 -289 -58 -60 -70 -68 -103 -68 -72 0 -107
31 -132 114 l-11 38 -33 -51 c-50 -77 -93 -111 -142 -111 -57 0 -96 27 -122
82 l-21 47 -51 -48 c-64 -61 -103 -81 -155 -81 -71 0 -140 93 -140 190 0 32
-1 31 -52 -36 -29 -37 -76 -83 -105 -102 l-51 -35 33 -32 c108 -101 47 -252
-105 -263 -125 -9 -228 89 -174 166 20 29 30 28 46 -5 7 -16 30 -36 51 -47 47
-23 91 -13 120 26 29 39 10 81 -46 103 -96 38 -204 122 -231 179 -51 108 32
356 170 505 89 96 191 134 263 96z m-124 -391 c39 -16 87 -12 114 10 8 6 1 -9
-16 -34 -46 -67 -119 -132 -146 -128 -19 3 -22 9 -22 53 1 41 20 115 30 115 1
0 19 -7 40 -16z m-99 -455 c9 -15 -23 -10 -35 5 -10 12 -8 13 9 9 11 -3 23 -9
26 -14z"/>
<path d="M1222 1130 c0 -14 2 -19 5 -12 2 6 2 18 0 25 -3 6 -5 1 -5 -13z"/>
<path d="M980 1017 c-41 -61 -83 -123 -93 -137 l-17 -28 67 -43 c38 -24 71
-45 74 -47 3 -1 9 46 13 105 4 59 13 142 20 183 8 41 13 76 13 76 -1 1 -36
-48 -77 -109z"/>
<path d="M1207 1068 c-17 -91 -28 -209 -24 -248 3 -44 4 -43 5 10 1 30 9 102
17 159 8 57 13 106 11 108 -2 2 -6 -11 -9 -29z"/>
<path d="M261 1054 c-40 -17 -37 -29 3 -14 15 5 55 11 89 11 50 1 56 3 32 9
-48 12 -87 10 -124 -6z"/>
<path d="M814 933 c-15 -20 -23 -33 -16 -29 13 8 56 66 49 66 -3 0 -17 -17
-33 -37z"/>
<path d="M2857 1425 c-9 -19 -15 -35 -12 -35 7 0 37 61 33 66 -3 2 -12 -12
-21 -31z"/>
<path d="M2053 1063 c-22 -31 -53 -88 -53 -99 0 -4 15 17 33 47 18 30 36 60
40 67 15 23 1 12 -20 -15z"/>
<path d="M2089 1048 c-17 -24 -18 -29 -6 -19 18 14 42 51 33 51 -3 0 -15 -15
-27 -32z"/>
<path d="M2224 1053 c-59 -63 -199 -400 -192 -460 3 -26 3 -25 54 20 63 57
164 179 164 199 0 8 -4 18 -9 23 -6 6 -4 30 4 63 21 81 29 168 16 176 -6 4
-23 -6 -37 -21z"/>
<path d="M1508 1023 c-18 -21 -31 -43 -25 -43 2 0 13 14 25 30 25 33 24 41 0
13z"/>
<path d="M1528 983 c-18 -21 -31 -43 -25 -43 2 0 13 14 25 30 25 33 24 41 0
13z"/>
<path d="M2722 863 c-34 -89 -55 -163 -49 -170 3 -2 8 10 12 28 4 18 22 73 41
123 18 49 32 92 30 94 -2 2 -18 -32 -34 -75z"/>
<path d="M2381 914 c0 -11 3 -14 6 -6 3 7 2 16 -1 19 -3 4 -6 -2 -5 -13z"/>
<path d="M2371 874 c0 -11 3 -14 6 -6 3 7 2 16 -1 19 -3 4 -6 -2 -5 -13z"/>
<path d="M1858 350 c-14 -9 -18 -25 -18 -80 0 -61 3 -71 21 -81 30 -16 98 -5
123 20 28 29 28 93 -1 122 -24 24 -98 35 -125 19z m86 -46 c30 -30 11 -84 -29
-84 -23 0 -25 4 -25 50 0 43 3 50 19 50 11 0 27 -7 35 -16z"/>
<path d="M2042 348 c-7 -7 -12 -40 -12 -78 0 -38 5 -71 12 -78 7 -7 36 -12 65
-12 46 0 53 3 53 20 0 17 -7 20 -40 20 -29 0 -40 4 -40 15 0 10 11 15 35 15
28 0 35 4 35 20 0 16 -7 20 -35 20 -24 0 -35 5 -35 15 0 11 11 15 40 15 33 0
40 3 40 20 0 17 -7 20 -53 20 -29 0 -58 -5 -65 -12z"/>
<path d="M2197 353 c-14 -13 -8 -150 7 -162 21 -18 111 -10 111 9 0 10 -12 16
-37 18 l-38 3 0 70 c0 60 -2 69 -18 69 -10 0 -22 -3 -25 -7z"/>
<path d="M2342 273 c3 -83 4 -88 26 -91 22 -3 23 -2 20 85 -3 83 -4 88 -26 91
-22 3 -23 2 -20 -85z"/>
<path d="M2416 351 c-7 -11 28 -116 49 -148 20 -29 50 -29 69 0 26 41 51 136
39 148 -21 21 -41 0 -54 -55 -7 -31 -15 -56 -19 -56 -4 0 -13 21 -20 48 -7 26
-17 53 -23 60 -11 14 -33 16 -41 3z"/>
<path d="M2612 348 c-16 -16 -16 -140 0 -156 7 -7 36 -12 65 -12 46 0 53 3 53
20 0 17 -7 20 -40 20 -29 0 -40 4 -40 15 0 10 11 15 35 15 28 0 35 4 35 20 0
16 -7 20 -35 20 -24 0 -35 5 -35 15 0 11 11 15 40 15 33 0 40 3 40 20 0 17 -7
20 -53 20 -29 0 -58 -5 -65 -12z"/>
<path d="M2778 349 c-14 -8 -18 -24 -18 -74 0 -76 6 -95 31 -95 14 0 19 7 19
30 0 17 4 30 9 30 5 0 19 -13 31 -30 34 -48 76 -34 45 14 -15 23 -15 27 0 50
13 19 14 29 5 45 -20 38 -82 54 -122 30z m77 -49 c0 -8 -10 -16 -22 -18 -18
-3 -23 2 -23 18 0 16 5 21 23 18 12 -2 22 -10 22 -18z"/>
<path d="M2916 352 c-3 -5 7 -28 21 -53 14 -24 29 -60 32 -79 5 -26 12 -36 29
-38 19 -3 22 1 22 28 0 17 12 51 26 76 14 24 23 51 20 59 -10 27 -37 16 -53
-22 l-15 -38 -19 38 c-18 35 -50 50 -63 29z"/>
</g>
</svg>
