<?xml version="1.0" standalone="no"?>
<!DOCTYPE svg PUBLIC "-//W3C//DTD SVG 20010904//EN"
 "http://www.w3.org/TR/2001/REC-SVG-20010904/DTD/svg10.dtd">
<svg version="1.0" xmlns="http://www.w3.org/2000/svg"
 width="710.000000pt" height="665.000000pt" viewBox="0 0 710.000000 665.000000"
 preserveAspectRatio="xMidYMid meet">

<g transform="translate(0.000000,665.000000) scale(0.100000,-0.100000)"
fill="#000000" stroke="none">
<path d="M4590 6389 c-33 -13 -68 -47 -87 -83 -21 -41 -21 -143 0 -182 20 -39
14 -46 -27 -30 -52 23 -104 37 -144 41 -21 2 -51 9 -67 15 -21 8 -31 8 -33 1
-2 -6 -27 -11 -55 -12 -29 0 -66 -6 -83 -12 -36 -14 -144 -79 -144 -87 0 -3
12 -10 26 -17 21 -10 24 -10 14 2 -10 12 -1 13 49 10 65 -4 178 -32 187 -46 3
-5 -3 -6 -12 -2 -13 5 -16 2 -12 -8 3 -9 -5 -25 -18 -38 -13 -13 -24 -27 -24
-32 0 -4 -7 -6 -15 -3 -11 5 -13 2 -8 -12 11 -29 70 -84 107 -99 18 -8 39 -21
46 -30 21 -25 91 -62 133 -69 24 -5 58 -1 94 9 61 18 70 16 54 -12 -12 -23 8
-70 28 -65 8 1 25 -5 38 -14 14 -9 22 -11 18 -5 -3 7 7 3 24 -7 24 -15 46 -18
92 -16 97 6 98 10 7 99 -45 44 -69 65 -55 47 15 -19 24 -39 21 -44 -4 -6 -2
-8 3 -5 6 4 18 -1 26 -11 15 -16 15 -18 -3 -18 -11 0 -20 4 -20 8 0 4 -5 8
-11 8 -5 0 -7 -4 -4 -10 8 -13 -1 -13 -26 0 -21 12 -24 7 -10 -19 8 -15 6 -17
-19 -13 -21 3 -29 11 -33 30 -7 35 2 59 15 40 8 -10 9 -9 5 4 -8 24 8 73 23
70 11 -3 11 0 0 13 -10 12 -10 19 -3 23 12 8 2 122 -16 180 -5 18 -6 30 0 27
5 -3 16 -32 25 -63 9 -31 39 -102 65 -158 l49 -100 53 6 c124 13 192 81 192
190 0 78 -28 123 -81 131 -39 6 -39 6 12 8 40 1 67 -7 133 -39 62 -30 95 -40
132 -40 28 0 49 5 49 11 0 6 -8 31 -19 57 -10 26 -24 66 -32 90 -7 24 -20 47
-30 53 -10 5 -20 17 -23 27 -4 12 -30 26 -74 40 -84 28 -118 28 -132 2 -6 -11
-19 -20 -28 -20 -10 0 -32 -13 -50 -30 -18 -16 -34 -30 -35 -30 -1 0 -2 28 -2
63 0 118 -74 187 -200 186 -33 0 -71 -5 -85 -10z m15 -29 c-3 -5 -11 -10 -16
-10 -6 0 -7 5 -4 10 3 6 11 10 16 10 6 0 7 -4 4 -10z m29 -35 c-7 -16 -24 -21
-24 -6 0 8 7 13 27 20 1 1 0 -6 -3 -14z m51 -25 c-10 -11 -20 -18 -23 -15 -3
3 3 14 13 25 10 11 20 18 23 15 3 -3 -3 -14 -13 -25z m96 -40 c5 0 9 -16 7
-35 -2 -31 -5 -34 -27 -30 -13 2 -28 8 -33 13 -12 12 15 63 30 57 8 -3 18 -5
23 -5z m279 -39 c0 -5 -7 -12 -16 -15 -14 -5 -15 -4 -4 9 14 17 20 19 20 6z
m-203 -167 c-3 -3 -12 -4 -19 -1 -8 3 -5 6 6 6 11 1 17 -2 13 -5z m-422 -55
c-8 -12 -35 -12 -35 0 0 11 22 20 33 14 4 -2 5 -9 2 -14z m278 8 c3 -8 1 -20
-4 -28 -6 -10 -9 -7 -9 14 0 29 5 35 13 14z m-205 -38 c49 -36 59 -79 18 -79
-16 0 -31 12 -50 40 -26 39 -34 70 -18 70 4 0 27 -14 50 -31z m782 -5 c0 -2
-11 -4 -25 -4 -14 0 -25 4 -25 9 0 4 11 6 25 3 14 -2 25 -6 25 -8z m-330 -59
c0 -8 -9 -15 -20 -15 -11 0 -20 5 -20 11 0 5 5 7 10 4 6 -3 10 -1 10 4 0 6 5
11 10 11 6 0 10 -7 10 -15z"/>
<path d="M1011 5075 c-36 -31 -55 -84 -46 -132 6 -35 77 -123 99 -123 6 0 43
27 81 61 39 33 82 68 98 77 15 9 27 19 27 23 0 17 -48 63 -94 89 -66 39 -122
40 -165 5z m53 -43 c6 -11 -22 -52 -35 -52 -16 0 -22 29 -9 45 14 16 36 20 44
7z"/>
<path d="M2194 5081 c-89 -54 -96 -119 -29 -261 69 -147 72 -220 9 -290 l-35
-39 22 -73 c12 -40 23 -75 25 -77 1 -1 40 19 86 47 46 27 98 57 115 66 l33 16
-47 89 c-55 107 -59 156 -19 268 30 84 32 121 10 187 -27 79 -102 108 -170 67z
m6 -60 c0 -12 -20 -25 -27 -18 -7 7 6 27 18 27 5 0 9 -4 9 -9z"/>
<path d="M4923 4964 c-28 -14 -63 -72 -63 -104 0 -5 27 3 61 16 33 14 83 31
111 38 l51 13 -35 21 c-49 30 -87 35 -125 16z"/>
<path d="M5997 4959 c-43 -23 -103 -82 -130 -127 l-17 -30 47 -35 c27 -20 63
-51 82 -71 33 -34 34 -34 60 -18 98 61 141 114 141 177 0 104 -88 154 -183
104z m131 -51 c20 -20 14 -40 -10 -36 -15 2 -24 11 -26 26 -4 24 16 30 36 10z"/>
<path d="M4089 4668 c-1 -7 -1 -16 0 -20 2 -12 -184 -9 -216 3 -41 16 -395 12
-592 -6 -472 -44 -889 -213 -1137 -459 -60 -60 -98 -108 -113 -141 -12 -27
-27 -59 -33 -70 -6 -11 -15 -78 -19 -150 -8 -116 -7 -138 12 -205 11 -41 36
-104 55 -140 19 -35 34 -70 34 -77 0 -7 5 -13 10 -13 6 0 10 -9 10 -19 0 -11
6 -21 13 -24 9 -3 9 -7 -2 -20 -12 -15 -11 -17 6 -17 10 0 26 -6 35 -12 15
-12 14 -15 -3 -32 -11 -12 -19 -15 -19 -7 0 8 -7 10 -21 6 -14 -5 -19 -3 -15
3 4 7 -2 9 -15 7 -19 -4 -21 -1 -15 28 6 28 5 29 -7 13 -13 -18 -14 -18 -21 0
-4 10 -3 20 3 22 7 2 5 9 -4 18 -8 9 -20 12 -26 8 -8 -4 -8 0 1 15 6 12 16 18
22 15 7 -5 8 -2 4 5 -6 9 -13 8 -28 -5 -16 -16 -21 -16 -28 -4 -6 8 -10 24
-10 35 0 15 -11 25 -35 34 -19 7 -33 17 -30 22 4 5 -1 9 -9 9 -8 0 -18 10 -22
22 -6 19 -7 19 -16 5 -10 -18 -2 -41 11 -32 5 2 13 -7 20 -21 15 -33 90 -130
129 -167 19 -18 28 -35 25 -47 -4 -15 -15 -6 -56 43 -28 34 -57 68 -64 75 -7
8 -10 18 -7 24 4 7 2 8 -4 4 -15 -9 -15 -49 -1 -63 7 -7 7 -13 1 -17 -13 -8
-78 145 -97 229 -13 52 -15 117 -13 298 3 225 2 235 -23 323 -41 138 -79 203
-180 303 -66 65 -182 132 -281 162 l-58 17 7 -26 c12 -49 7 -156 -10 -208 -28
-81 -74 -126 -167 -164 -90 -36 -140 -82 -140 -128 0 -36 48 -112 88 -141 l31
-22 6 38 c13 84 79 179 148 212 96 46 207 53 287 18 108 -48 176 -157 191
-304 9 -82 8 -86 -22 -146 -51 -101 -62 -110 -213 -163 -38 -13 -83 -24 -99
-24 -37 0 -148 61 -176 96 l-20 25 -26 -51 c-34 -67 -106 -136 -156 -152 -39
-11 -44 -10 -130 35 -64 34 -101 47 -131 47 -114 0 -168 -143 -87 -235 40 -45
69 -49 177 -25 179 39 253 22 300 -70 21 -41 22 -54 17 -145 -8 -126 0 -143
75 -168 79 -26 84 -34 90 -136 5 -76 10 -94 32 -123 54 -70 153 -92 233 -51
22 12 81 57 131 100 111 97 134 107 222 101 123 -9 212 -67 212 -137 0 -30
-10 -49 -54 -101 -67 -78 -98 -139 -104 -200 -8 -86 50 -150 135 -150 33 0 50
7 78 31 55 48 67 82 75 199 5 78 13 116 29 148 12 23 24 42 27 42 3 0 37 -28
77 -62 244 -210 591 -353 1009 -417 153 -24 234 -26 376 -11 419 45 761 198
1044 468 l81 77 16 -24 c34 -50 50 -107 50 -176 1 -94 14 -135 56 -178 63 -65
148 -57 195 18 42 67 14 161 -79 270 -62 72 -68 115 -23 158 25 24 89 57 110
57 5 0 12 -23 16 -51 12 -88 42 -153 95 -203 27 -25 62 -48 78 -52 15 -4 52
-18 82 -31 37 -17 57 -21 64 -14 7 7 5 12 -6 17 -10 3 -17 17 -17 31 0 22 -2
24 -15 13 -13 -10 -15 -9 -15 9 0 12 -4 20 -9 16 -28 -17 -17 92 12 120 7 7 8
6 3 -2 -4 -7 -3 -13 2 -13 8 0 32 43 32 58 0 4 -8 -2 -16 -13 -15 -19 -16 -18
-9 13 4 21 2 38 -6 48 -25 30 0 24 37 -10 54 -49 51 -46 84 -93 26 -38 35 -43
68 -43 48 0 111 36 135 78 13 22 21 60 24 105 6 88 20 112 69 122 21 3 50 19
67 36 29 29 30 33 24 96 -4 36 -9 68 -11 71 -3 2 -19 -1 -37 -7 -18 -6 -71
-11 -119 -11 -71 0 -98 5 -141 24 -86 38 -106 67 -143 204 -19 70 -22 99 -16
134 14 71 59 139 111 166 24 13 51 30 59 37 21 19 134 45 196 45 51 0 52 1 58
34 4 19 16 46 28 61 17 22 19 31 10 46 -7 10 -12 31 -12 46 0 35 -34 104 -67
137 -24 24 -27 25 -44 10 -10 -9 -30 -46 -44 -82 -27 -69 -95 -152 -125 -152
-8 0 -28 21 -44 47 -50 84 -35 177 40 238 24 20 44 42 44 49 0 8 -39 33 -87
57 -49 24 -102 54 -120 67 -28 20 -46 24 -157 28 -92 4 -150 1 -215 -11 l-89
-17 -88 60 c-49 33 -118 74 -154 93 -36 18 -67 35 -70 38 -3 4 -9 7 -15 8 -5
2 -54 19 -108 38 -103 37 -122 41 -113 26 17 -27 -89 -28 -180 -1 -38 11 -93
27 -121 36 -55 16 -73 43 -30 45 27 2 -67 27 -105 28 -16 1 -29 -5 -29 -11z
m551 -139 c0 -4 -7 -6 -15 -3 -8 4 -15 10 -15 15 0 4 7 6 15 3 8 -4 15 -10 15
-15z m326 -148 c101 -60 233 -171 293 -247 31 -41 32 -45 20 -74 -15 -33 -29
-39 -29 -12 0 14 -3 13 -18 -6 -16 -21 -20 -22 -31 -8 -7 9 -11 22 -8 31 4 8
2 17 -3 20 -4 3 -10 1 -12 -5 -1 -5 -11 4 -20 20 -14 25 -15 30 -3 30 8 0 15
9 15 21 0 11 -4 18 -9 15 -4 -3 -19 3 -31 14 -13 11 -29 20 -36 20 -6 0 -27
14 -46 30 -18 17 -77 64 -132 105 -89 68 -99 81 -58 76 6 -1 12 2 12 8 0 5 -6
12 -12 14 -7 3 -8 6 -2 6 5 1 55 -26 110 -58z m-536 -51 c52 -12 131 -31 175
-41 91 -22 181 -64 201 -94 26 -39 -9 -185 -44 -185 -7 0 -15 -7 -18 -15 -4
-11 -21 -15 -58 -15 -54 0 -150 28 -325 94 -51 20 -98 36 -103 36 -13 0 87
-86 135 -117 23 -15 77 -39 120 -54 44 -15 90 -35 103 -44 27 -17 104 -118
104 -136 0 -11 -22 -30 -95 -83 -22 -16 -34 -22 -26 -13 8 10 12 19 10 20 -81
51 -162 71 -252 63 -39 -4 -83 -7 -96 -6 -14 0 -27 -4 -31 -10 -6 -10 -94 54
-152 113 -21 21 -38 37 -38 35 1 -24 74 -130 129 -188 41 -43 69 -80 66 -88
-3 -8 -5 -25 -5 -38 0 -13 -5 -24 -10 -24 -6 0 -24 -10 -40 -21 -16 -12 -37
-20 -47 -17 -10 3 -24 -1 -31 -9 -15 -15 -36 -18 -27 -3 3 6 2 10 -4 10 -5 0
-11 -6 -13 -12 -3 -9 -35 -13 -99 -14 -52 -1 -106 -6 -121 -12 -23 -10 -28 -8
-33 9 -4 10 -11 17 -16 13 -17 -10 -89 -13 -89 -3 0 5 -11 9 -25 9 -17 0 -23
-4 -19 -15 5 -12 1 -13 -22 -4 -36 13 -86 80 -121 161 -15 35 -33 68 -40 73
-10 8 -10 16 2 39 20 39 19 41 -11 21 -25 -16 -25 -16 -14 5 6 12 18 24 26 27
8 3 14 14 14 24 0 10 4 19 9 19 8 0 51 64 51 76 0 3 -14 -6 -31 -20 -17 -15
-45 -34 -61 -42 -18 -9 -28 -21 -24 -29 3 -9 -9 -23 -30 -36 l-35 -21 33 -29
c34 -29 32 -37 -4 -18 -14 8 -18 8 -14 0 4 -6 -1 -19 -11 -28 -20 -20 -59 -24
-56 -5 2 6 -4 9 -12 6 -10 -4 -15 0 -15 14 0 24 30 36 63 26 21 -6 22 -6 4 13
-12 14 -31 21 -58 21 -41 1 -129 37 -129 53 0 5 -8 9 -17 10 -11 0 -13 3 -5 6
32 13 -4 102 -40 95 -9 -2 -22 4 -30 13 -7 9 -18 21 -24 27 -7 9 -6 20 4 41
17 34 13 40 -21 32 -16 -4 -24 -12 -21 -20 3 -7 -5 -20 -17 -29 -26 -18 -26
-17 19 -40 31 -16 45 -33 18 -23 -7 3 -18 1 -24 -5 -7 -7 -16 -6 -30 1 -25 13
-32 14 -32 2 0 -5 14 -13 31 -16 23 -5 28 -9 18 -16 -8 -5 -26 -9 -40 -9 -20
0 -28 6 -33 25 -4 14 -11 25 -16 25 -6 0 -8 -10 -5 -23 4 -15 0 -28 -11 -38
-15 -13 -15 -14 7 -20 15 -5 6 -7 -26 -6 -27 1 -60 -2 -72 -6 -19 -7 -23 -5
-23 11 0 11 -4 22 -10 24 -5 2 -7 12 -4 23 6 25 113 75 160 75 26 0 32 3 28
15 -4 8 0 22 7 31 11 13 9 15 -17 10 -16 -2 -39 -5 -51 -5 -13 -1 -23 -6 -23
-12 0 -10 -45 -59 -55 -59 -2 0 1 15 6 32 5 18 9 35 9 38 0 12 -39 8 -51 -6
-6 -8 -8 -14 -5 -14 4 0 -9 -21 -29 -47 -20 -27 -39 -48 -42 -48 -3 0 -7 15
-8 33 -5 61 86 134 147 119 11 -3 28 -2 37 2 38 20 121 35 186 36 85 0 110 11
71 32 -32 17 -33 29 -2 37 37 9 69 -8 50 -27 -3 -3 -7 -27 -8 -53 -2 -38 -7
-51 -31 -71 -26 -23 -30 -24 -40 -9 -18 23 -20 20 -20 -23 0 -52 10 -60 30
-22 20 39 27 39 23 0 -5 -48 22 -59 58 -26 16 15 32 27 37 27 4 0 26 14 48 32
37 29 40 30 57 15 24 -22 42 -22 42 1 0 10 6 26 13 37 9 11 12 30 8 48 -5 24
-12 31 -36 34 -31 5 -39 9 -41 24 -1 5 -2 10 -4 12 -6 7 -13 46 -13 75 -1 64
65 93 79 36 5 -19 11 -23 25 -19 23 8 59 -3 59 -16 0 -6 -17 -9 -37 -7 -30 2
-38 -1 -41 -15 -3 -17 1 -18 45 -12 26 4 44 3 38 -2 -13 -10 -17 -83 -5 -83 5
0 12 5 15 10 3 6 1 10 -4 10 -8 0 -7 7 0 23 7 12 15 29 20 37 4 10 -2 25 -18
42 -26 27 -24 52 3 41 8 -3 37 6 64 21 31 17 51 23 55 16 4 -6 15 -8 25 -5 22
7 38 -14 19 -25 -7 -5 -39 -12 -71 -15 -49 -6 -57 -9 -47 -21 13 -16 55 -19
64 -5 3 5 18 12 34 16 15 3 38 19 50 35 25 35 41 37 66 10 10 -12 24 -19 30
-16 23 8 74 -23 81 -49 10 -39 52 -78 78 -71 14 4 30 -3 48 -21 35 -33 35 -43
2 -43 -14 0 -23 4 -19 10 3 6 -1 10 -9 10 -10 0 -13 6 -10 18 5 13 4 14 -4 3
-5 -7 -14 -11 -19 -8 -5 3 -20 -3 -33 -14 -14 -10 -19 -19 -12 -19 6 0 12 -8
12 -17 0 -14 -2 -15 -9 -5 -4 8 -17 12 -27 11 -11 -2 -25 0 -31 4 -18 11 -36
-2 -28 -21 4 -11 -2 -9 -19 7 -20 19 -28 21 -45 12 -30 -16 -26 -23 11 -19 25
2 33 -1 36 -15 7 -33 35 -57 68 -57 17 0 53 -11 79 -25 27 -13 50 -23 50 -22
1 1 7 16 14 32 6 17 38 58 69 93 49 52 58 67 54 91 -2 16 1 54 8 85 15 75 38
88 140 82 41 -2 118 -14 170 -26z m1073 -17 c8 -7 -64 -42 -76 -36 -4 2 -2 13
3 24 10 19 59 27 73 12z m-2418 -78 c0 -23 -6 -32 -26 -39 -52 -18 -106 17
-78 50 11 13 48 22 84 20 15 -1 20 -8 20 -31z m55 21 c0 -8 -4 -18 -10 -21 -5
-3 -10 3 -10 14 0 12 5 21 10 21 6 0 10 -6 10 -14z m-2079 -91 c-17 -20 -31
-40 -31 -45 0 -6 -7 -10 -15 -10 -31 0 -3 55 40 78 36 20 38 13 6 -23z m1902
21 c9 -7 17 -18 17 -24 0 -17 -54 -42 -90 -42 -47 0 -39 35 15 62 38 20 37 20
58 4z m333 -8 c10 -15 -3 -20 -23 -10 -22 12 -35 6 -51 -23 -7 -13 -11 -15
-12 -6 0 24 39 59 61 54 11 -3 22 -10 25 -15z m-491 -2 c36 -16 50 -42 16 -31
-11 3 -22 1 -26 -5 -3 -5 -30 -10 -58 -10 l-52 0 31 19 c18 11 35 24 38 30 9
14 10 14 51 -3z m1275 -26 c13 -9 13 -10 0 -10 -8 0 -22 5 -30 10 -13 9 -13
10 0 10 8 0 22 -5 30 -10z m-850 -55 c0 -14 -4 -25 -9 -25 -5 0 -8 8 -6 18 2
9 4 20 4 25 2 19 11 4 11 -18z m695 -15 c3 -5 -1 -10 -10 -10 -9 0 -13 5 -10
10 3 6 8 10 10 10 2 0 7 -4 10 -10z m1415 -82 c44 -97 45 -104 15 -124 -28
-18 -33 -49 -9 -62 13 -7 13 -13 3 -38 -7 -16 -18 -36 -23 -44 -6 -9 -2 -6 9
6 11 12 29 37 39 55 l20 34 9 -63 c7 -48 5 -80 -7 -132 -17 -77 -83 -260 -99
-275 -7 -7 -8 -4 -3 10 5 16 2 15 -14 -5 -11 -14 -20 -28 -20 -32 0 -5 -7 -8
-16 -8 -14 0 -13 5 5 36 17 28 6 21 -51 -36 -40 -39 -86 -81 -103 -92 -29 -21
-29 -21 4 15 19 21 30 37 23 37 -7 0 -12 -5 -12 -12 0 -6 -3 -9 -6 -5 -4 3
-15 -4 -26 -16 -18 -20 -19 -21 -13 -2 4 13 -4 8 -24 -15 -21 -24 -29 -29 -25
-15 5 19 5 19 -10 1 -8 -10 -19 -15 -25 -11 -6 3 -22 -4 -35 -17 -13 -13 -30
-24 -37 -26 -8 -2 -22 -13 -31 -25 -11 -14 -18 -17 -18 -8 0 11 -3 11 -16 0
-19 -16 -50 -34 -81 -48 -13 -6 -23 -15 -23 -21 0 -5 -7 -10 -15 -10 -8 0 -39
-16 -69 -35 -30 -19 -60 -35 -66 -35 -5 0 -10 -4 -10 -9 0 -5 -10 -7 -22 -3
-14 3 -19 1 -14 -6 5 -8 2 -10 -9 -6 -10 4 -14 14 -10 28 6 21 6 21 -9 2 -9
-11 -16 -24 -16 -28 0 -5 -6 -8 -12 -6 -7 1 -23 -3 -35 -10 -12 -6 -40 -14
-62 -16 -22 -2 -47 -9 -55 -15 -8 -7 -20 -10 -25 -7 -5 4 -12 2 -16 -4 -4 -6
-10 -8 -15 -5 -5 3 -20 1 -34 -5 -14 -5 -97 -21 -183 -36 -140 -23 -187 -26
-423 -28 -303 -1 -503 14 -670 50 -122 27 -262 64 -269 70 -2 2 4 13 14 24 14
16 21 17 32 8 10 -8 17 -8 25 0 9 9 7 12 -9 12 -12 0 -23 4 -25 9 -1 6 -19 12
-38 15 -19 3 -29 3 -22 -1 10 -4 9 -9 -4 -24 -22 -24 -41 -24 -106 2 -72 28
-82 38 -64 58 18 20 24 45 11 46 -12 1 -85 45 -85 51 0 2 28 -9 63 -25 34 -16
74 -34 90 -40 15 -6 27 -16 27 -23 0 -9 -3 -9 -10 2 -5 8 -12 11 -15 8 -4 -4
0 -16 8 -28 12 -18 16 -19 27 -5 18 22 37 19 152 -19 480 -160 1163 -152 1683
19 184 60 465 207 465 243 0 12 3 13 8 5 13 -20 150 105 215 195 34 47 70 113
87 159 16 43 33 77 38 76 6 -1 15 11 21 28 6 18 6 27 1 24 -6 -4 -10 2 -10 12
0 10 -6 36 -14 58 -7 22 -16 54 -20 70 -7 29 -7 29 8 10 15 -20 15 -20 16 5 0
19 2 22 10 10 5 -8 12 -11 17 -7 7 8 -8 22 -32 30 -6 2 -5 10 3 20 7 8 15 28
18 43 11 61 19 58 54 -18z m-540 -17 c0 -5 -7 -11 -15 -15 -15 -5 -20 5 -8 17
9 10 23 9 23 -2z m-1765 -102 c-1 -12 -9 -25 -18 -30 -14 -8 -14 -6 -1 21 18
36 21 37 19 9z m91 0 c19 -22 19 -22 -3 -10 -13 6 -23 16 -23 21 0 15 5 12 26
-11z m-431 -22 c8 -12 15 -36 15 -54 0 -32 -2 -33 -38 -33 -26 0 -45 7 -56 19
-10 11 -27 21 -39 23 -11 2 -23 9 -25 17 -3 10 0 12 12 8 10 -4 19 -1 23 9 13
35 86 42 108 11z m2695 3 c0 -5 -5 -10 -11 -10 -5 0 -7 5 -4 10 3 6 8 10 11
10 2 0 4 -4 4 -10z m-2263 -96 c1 -51 -2 -74 -10 -75 -27 -3 -54 -1 -79 6 -21
5 -28 4 -28 -7 0 -7 -10 -22 -21 -32 -20 -17 -24 -17 -54 -3 -19 9 -43 35 -60
64 -35 61 -32 58 -50 43 -17 -14 -31 -8 -20 10 11 18 103 60 132 60 15 0 52
-11 81 -25 64 -30 62 -29 62 -8 0 19 30 56 39 47 3 -3 7 -39 8 -80z m-382 -12
c-2 -9 -4 -20 -4 -24 -1 -5 -11 -8 -23 -8 -20 0 -20 1 -5 18 10 10 17 24 17
31 0 7 4 10 9 7 5 -4 8 -14 6 -24z m468 12 c9 -4 17 -10 17 -15 0 -5 3 -8 8
-6 4 1 7 -2 7 -8 0 -5 -7 -8 -15 -7 -10 2 -8 -2 5 -12 19 -14 19 -15 2 -16
-28 0 -77 32 -77 50 0 21 11 32 24 25 6 -3 19 -8 29 -11z m1093 -62 c-3 -3 0
-12 7 -20 10 -12 6 -12 -20 2 -40 20 -41 24 -8 24 14 0 23 -3 21 -6z m-878
-37 c-3 -3 -9 2 -12 12 -6 14 -5 15 5 6 7 -7 10 -15 7 -18z m-44 -9 c-3 -9
-10 -13 -16 -10 -5 3 -4 12 3 20 15 18 22 13 13 -10z m-139 -17 c11 -17 0 -20
-21 -4 -17 13 -17 14 -2 15 9 0 20 -5 23 -11z m88 -24 c4 8 14 15 22 15 9 0
13 -5 10 -10 -4 -6 -1 -17 5 -25 8 -10 9 -15 2 -15 -6 0 -10 -6 -9 -12 2 -7
-1 -3 -7 10 -6 14 -16 20 -24 17 -16 -6 -42 11 -42 28 0 5 8 2 19 -7 16 -15
19 -15 24 -1z m97 10 c0 -2 -10 -10 -22 -16 -21 -11 -22 -11 -9 4 13 16 31 23
31 12z m-530 -24 c0 -5 -8 -12 -17 -14 -11 -3 -7 -5 10 -6 15 0 27 -5 27 -10
0 -20 -93 -28 -120 -11 -13 9 -11 13 10 30 25 20 90 28 90 11z m359 -32 c32
-19 32 -21 15 -33 -21 -15 -90 -30 -116 -27 -27 3 -21 -14 8 -28 40 -18 24
-22 -21 -6 -22 8 -36 14 -30 15 5 0 4 5 -3 12 -31 31 4 73 69 81 19 2 36 5 39
5 3 1 20 -7 39 -19z m-2576 -74 c-22 -46 -43 -53 -43 -15 0 18 8 34 22 44 31
22 40 10 21 -29z m447 38 c0 -15 -35 -43 -54 -43 -19 1 -18 3 9 25 30 25 45
31 45 18z m1854 -18 c22 -22 20 -32 -9 -51 -30 -20 -119 -24 -137 -6 -10 10
-9 14 10 18 13 4 19 11 15 18 -16 25 -8 32 47 34 43 2 62 -1 74 -13z m106 -15
c11 -8 9 -9 -12 -8 -16 1 -28 6 -28 10 0 11 22 10 40 -2z m-1560 -20 c0 -5 -4
-10 -10 -10 -5 0 -10 5 -10 10 0 6 5 10 10 10 6 0 10 -4 10 -10z m2660 -9 c0
-5 -9 -11 -21 -14 -16 -4 -18 -3 -8 9 13 16 29 19 29 5z m-1084 -12 c4 -8 -1
-9 -17 -4 l-24 8 25 -23 c24 -21 21 -22 -27 -3 -10 3 -6 -4 10 -16 30 -25 37
-47 10 -32 -10 5 -39 12 -65 16 -27 4 -48 11 -48 16 0 5 6 9 14 9 8 0 16 6 19
14 5 13 28 20 79 25 9 0 20 -4 24 -10z m479 -9 c-3 -5 -13 -6 -21 -3 -12 4
-13 8 -3 14 15 9 32 2 24 -11z m-298 -11 c-8 -29 16 -35 59 -14 26 12 41 14
62 6 l27 -9 -32 -1 c-65 -2 -39 -31 28 -31 26 0 67 -34 52 -43 -4 -2 -21 -3
-36 -1 l-28 3 23 -19 23 -18 -29 -8 c-18 -4 -40 -1 -62 10 -46 22 -54 20 -24
-5 l25 -21 -25 7 c-14 3 -31 7 -37 7 -16 2 -17 25 -2 30 9 3 9 10 0 26 -7 12
-10 26 -7 31 12 19 -33 18 -53 -1 -21 -19 -21 -19 -31 8 -6 15 -8 29 -5 33 5
4 43 20 74 30 2 0 1 -8 -2 -20z m266 -14 c-6 -17 -25 -15 -31 3 -2 7 5 12 17
12 14 0 19 -5 14 -15z m-492 -87 c-3 -7 -5 -27 -5 -45 -1 -28 -3 -30 -17 -17
-15 14 -39 21 -26 7 4 -3 0 -15 -10 -25 -9 -10 -12 -18 -7 -18 11 0 -17 -20
-28 -20 -5 0 -8 6 -8 14 0 8 -12 17 -27 21 -20 5 -24 8 -13 15 8 5 18 6 22 4
4 -3 8 0 8 7 0 6 16 29 37 49 29 31 40 37 57 30 12 -4 19 -14 17 -22z m39 -27
c13 -26 13 -28 -9 -34 -13 -3 -18 0 -15 8 3 7 0 16 -5 20 -12 7 -5 25 9 25 5
0 14 -9 20 -19z m-1464 -35 c27 -27 34 -42 34 -71 0 -41 -38 -112 -87 -162
-16 -17 -35 -45 -42 -64 -31 -83 -44 -107 -82 -146 -22 -24 -44 -43 -49 -43
-16 0 -60 73 -76 127 -14 49 -14 54 5 92 12 22 39 54 61 72 29 23 41 42 45 68
12 75 26 110 56 135 45 38 92 35 135 -8z m2214 9 c10 -13 7 -17 -23 -30 -47
-20 -83 -19 -91 1 -8 20 -9 18 29 32 43 15 71 14 85 -3z m-715 -25 c-4 -6 -1
-18 7 -27 11 -14 10 -15 -12 -7 -14 5 -45 9 -70 8 l-45 -1 50 17 c60 21 78 23
70 10z m332 -12 c-1 -13 -9 -32 -17 -44 -19 -26 -50 -38 -50 -20 0 8 9 16 21
19 11 3 19 11 18 19 -3 17 11 48 21 48 5 0 8 -10 7 -22z m-1369 -26 c2 -7 -1
-12 -7 -12 -6 0 -11 5 -11 10 0 6 -7 10 -15 10 -8 0 -15 7 -15 16 0 15 2 15
22 2 12 -8 24 -20 26 -26z m2742 8 c-33 -26 -52 -25 -21 0 13 11 28 20 35 20
6 0 0 -9 -14 -20z m-2710 -35 c7 -9 8 -15 2 -15 -5 0 -12 7 -16 15 -3 8 -4 15
-2 15 2 0 9 -7 16 -15z m289 -41 c14 -12 -19 -1 -35 12 -18 14 -18 14 6 3 14
-6 27 -13 29 -15z m891 -9 c9 -11 7 -19 -14 -40 -14 -14 -30 -25 -35 -25 -17
0 -42 46 -35 64 8 20 67 22 84 1z m-1261 -100 c0 -11 -25 20 -41 50 -5 11 2 7
16 -10 14 -16 25 -34 25 -40z m432 -2 c-12 -20 -14 -14 -5 12 4 9 9 14 11 11
3 -2 0 -13 -6 -23z m2829 -42 c0 -6 -4 -12 -9 -15 -5 -3 -7 -15 -4 -25 5 -20
-12 -38 -21 -22 -10 16 6 71 20 71 8 0 14 -4 14 -9z m316 -176 c68 -38 143
-65 183 -65 20 0 22 -2 10 -16 -9 -12 -24 -15 -51 -11 -57 8 -218 95 -218 119
0 13 10 10 76 -27z m-4095 -59 c-13 -14 -48 -34 -78 -47 -44 -18 -59 -20 -79
-11 -34 16 -30 27 11 29 19 2 62 14 97 27 35 14 65 25 67 25 3 1 -6 -10 -18
-23z m3525 -58 c26 -52 27 -77 0 -36 -23 35 -49 101 -36 93 6 -3 22 -29 36
-57z m-2866 -20 c-11 -25 -27 -52 -37 -59 -10 -9 -4 11 17 49 38 71 50 77 20
10z m2989 -147 c24 -48 33 -88 21 -96 -9 -6 -54 82 -66 132 -7 26 -6 27 10 14
10 -8 25 -31 35 -50z m-3119 -66 c-34 -75 -50 -93 -50 -55 0 43 62 151 78 135
3 -2 -10 -38 -28 -80z"/>
<path d="M3760 4253 c14 -9 30 -22 35 -29 6 -6 19 -14 29 -18 15 -5 13 -1 -7
18 -29 27 -60 46 -74 46 -4 0 4 -8 17 -17z"/>
<path d="M3696 4218 c14 -40 13 -44 -6 -70 -25 -33 -13 -37 20 -6 20 19 24 20
34 6 18 -25 100 -27 126 -3 23 21 19 35 -5 15 -20 -17 -58 1 -73 35 -8 17 -86
65 -106 65 -3 0 2 -19 10 -42z"/>
<path d="M3340 4195 c0 -14 5 -25 10 -25 6 0 10 4 10 9 0 5 3 16 6 25 4 11 1
16 -10 16 -10 0 -16 -9 -16 -25z"/>
<path d="M3560 4161 c-5 -11 -20 -21 -32 -23 -20 -3 -23 -8 -20 -42 3 -32 1
-38 -12 -33 -8 3 -18 2 -21 -4 -4 -5 -11 -7 -16 -4 -5 4 -9 2 -9 -2 0 -16 62
-34 77 -21 13 10 87 7 123 -6 19 -6 62 47 55 67 -8 19 -53 10 -66 -14 -7 -14
-21 -19 -48 -19 -46 0 -70 22 -51 45 7 9 18 14 24 12 7 -3 11 9 12 29 1 39 -1
41 -16 15z"/>
<path d="M3405 4039 c-10 -15 3 -25 16 -12 7 7 7 13 1 17 -6 3 -14 1 -17 -5z"/>
<path d="M4300 4016 c0 -2 7 -7 16 -10 8 -3 12 -2 9 4 -6 10 -25 14 -25 6z"/>
<path d="M3568 3991 c13 -11 18 -22 12 -26 -5 -3 -10 -10 -10 -15 0 -5 12 2
26 15 15 14 35 25 45 25 11 0 19 4 19 10 0 6 -9 6 -22 1 -26 -10 -57 -9 -78 3
-8 4 -5 -1 8 -13z"/>
<path d="M3218 3870 c-15 -17 -14 -18 20 -23 46 -6 63 8 36 28 -24 18 -35 18
-56 -5z"/>
<path d="M3370 3870 c0 -5 5 -10 11 -10 5 0 7 5 4 10 -3 6 -8 10 -11 10 -2 0
-4 -4 -4 -10z"/>
<path d="M3968 3762 c-22 -4 -23 -16 -2 -36 16 -17 41 -20 68 -10 18 7 10 34
-10 34 -8 0 -14 4 -14 8 0 9 -14 10 -42 4z"/>
<path d="M3870 3710 c0 -5 5 -10 10 -10 6 0 10 5 10 10 0 6 -4 10 -10 10 -5 0
-10 -4 -10 -10z"/>
<path d="M5234 3582 c-11 -7 -38 -52 -31 -52 2 0 13 14 25 30 24 31 24 35 6
22z"/>
<path d="M5270 3539 c0 -5 5 -7 10 -4 6 3 10 8 10 11 0 2 -4 4 -10 4 -5 0 -10
-5 -10 -11z"/>
<path d="M5250 3500 c-6 -11 -8 -20 -6 -20 3 0 10 9 16 20 6 11 8 20 6 20 -3
0 -10 -9 -16 -20z"/>
<path d="M5111 3339 c-7 -12 -10 -23 -8 -26 3 -3 11 5 17 17 15 28 8 35 -9 9z"/>
<path d="M3100 3760 c0 -5 5 -10 11 -10 5 0 7 5 4 10 -3 6 -8 10 -11 10 -2 0
-4 -4 -4 -10z"/>
<path d="M500 4393 c-42 -22 -60 -54 -60 -111 0 -79 38 -121 110 -122 89 0
154 72 130 145 -11 34 -71 95 -93 95 -7 0 -21 3 -32 5 -11 3 -36 -2 -55 -12z
m20 -53 c0 -10 -9 -24 -20 -30 -17 -9 -20 -8 -20 8 0 18 18 42 32 42 4 0 8 -9
8 -20z"/>
<path d="M6524 4316 c-35 -16 -72 -58 -81 -94 -12 -51 42 -115 102 -122 73 -8
106 12 124 77 15 55 -2 109 -42 133 -37 23 -60 24 -103 6z m100 -42 c19 -19
21 -44 3 -44 -16 0 -40 38 -32 50 8 13 11 13 29 -6z"/>
<path d="M6140 4126 c8 -22 7 -31 -4 -40 -16 -13 -27 -74 -14 -82 5 -3 5 -10
2 -16 -5 -8 -1 -9 12 -4 10 4 31 10 47 13 33 7 44 21 23 29 -10 4 -16 18 -16
38 0 23 -9 41 -31 62 l-30 29 11 -29z"/>
<path d="M6344 3551 c-22 -10 -59 -30 -82 -45 -39 -24 -42 -29 -42 -70 0 -25
-4 -56 -9 -69 -9 -24 -8 -24 99 -46 101 -22 109 -22 139 -6 97 50 94 200 -5
241 -43 18 -50 17 -100 -5z m144 -100 c-2 -9 -7 -16 -13 -16 -14 0 -47 63 -39
76 10 16 56 -37 52 -60z"/>
<path d="M6400 2950 c-36 -3 -73 -10 -83 -15 -23 -10 -35 -40 -29 -72 10 -50
153 -163 246 -193 138 -44 243 100 165 226 -37 61 -107 74 -299 54z m284 -79
c13 -14 16 -28 11 -55 -6 -30 -11 -36 -32 -36 -21 0 -24 4 -19 23 3 12 6 37 6
55 0 37 9 40 34 13z"/>
<path d="M474 2931 c-56 -25 -88 -80 -88 -146 0 -89 52 -146 140 -153 44 -4
62 1 115 28 72 36 153 97 187 141 17 21 22 39 20 66 -4 56 -41 70 -203 77
-115 6 -135 4 -171 -13z m-9 -111 c4 -27 4 -54 0 -60 -13 -22 -35 -8 -46 30
-11 35 -10 42 6 60 27 29 32 25 40 -30z"/>
<path d="M902 1910 c-55 -34 -77 -115 -51 -189 6 -18 10 -34 7 -36 -2 -2 -31
4 -63 15 -92 28 -149 39 -160 31 -5 -5 -34 -11 -64 -14 -35 -4 -70 -17 -102
-38 -28 -17 -48 -32 -47 -33 2 -1 14 -10 28 -21 19 -16 22 -16 11 -2 -12 15
-10 17 22 17 44 0 135 -19 142 -29 2 -5 -10 -27 -27 -50 l-31 -42 34 -35 c18
-19 38 -34 45 -34 7 0 31 -16 54 -35 56 -47 124 -57 194 -29 15 6 17 4 12 -14
-9 -27 11 -65 29 -58 8 3 17 1 21 -5 3 -6 12 -8 19 -5 8 3 18 -1 24 -8 9 -11
30 -13 99 -7 8 1 10 6 6 14 -5 8 -2 7 9 -2 10 -8 20 -12 22 -9 2 2 -26 33 -62
69 -65 62 -66 62 -28 14 22 -27 34 -46 27 -41 -7 4 -12 2 -12 -6 0 -8 -4 -7
-11 4 -12 22 -42 12 -36 -13 4 -15 2 -16 -19 -7 -13 6 -24 15 -24 20 0 5 -4 6
-10 3 -11 -7 0 27 25 75 9 17 13 35 10 40 -3 6 -2 10 3 10 10 0 8 66 -3 122
-5 25 -4 29 4 18 9 -13 11 -12 11 3 0 10 5 15 10 12 8 -5 7 -11 -1 -21 -15
-18 -6 -51 39 -147 l37 -79 40 5 c55 6 113 34 133 65 11 17 17 47 17 88 0 70
-18 100 -64 107 -21 3 -20 4 9 5 21 1 61 -10 100 -29 36 -17 78 -32 93 -34 25
-3 27 -2 15 12 -12 15 -11 15 10 4 13 -7 26 -11 28 -8 10 10 -45 148 -63 160
-7 4 -13 13 -13 20 0 15 -87 47 -129 47 -17 0 -31 -4 -31 -10 0 -5 -15 -16
-34 -24 -18 -8 -37 -19 -40 -25 -14 -22 -21 -10 -18 28 4 44 -13 84 -53 121
-37 35 -145 41 -193 10z m58 -40 c0 -5 -7 -10 -16 -10 -8 0 -12 5 -9 10 3 6
10 10 16 10 5 0 9 -4 9 -10z m36 -18 c-18 -16 -18 -16 -6 6 6 13 14 21 18 18
3 -4 -2 -14 -12 -24z m68 -28 c24 -9 21 -54 -3 -54 -25 0 -32 11 -24 38 6 25
5 24 27 16z m231 -44 c-28 -12 -37 -12 -30 0 3 6 16 10 28 9 21 0 21 -1 2 -9z
m-675 -84 c0 -3 -4 -8 -10 -11 -5 -3 -10 -1 -10 4 0 6 5 11 10 11 6 0 10 -2
10 -4z m450 -40 c0 -2 -7 -7 -16 -10 -8 -3 -12 -2 -9 4 6 10 25 14 25 6z
m-270 -36 c0 -5 -7 -10 -16 -10 -8 0 -12 5 -9 10 3 6 10 10 16 10 5 0 9 -4 9
-10z m57 -31 c24 -15 33 -27 31 -43 -5 -36 -32 -30 -56 13 -33 59 -30 64 25
30z m350 -66 c-3 -3 -11 -2 -17 2 -9 6 -9 10 1 16 14 8 27 -7 16 -18z"/>
<path d="M3455 1844 c-269 -29 -465 -74 -490 -114 -3 -5 8 -16 24 -25 42 -21
194 -19 415 5 216 24 268 25 506 4 229 -20 360 -10 360 26 0 21 -112 60 -230
80 -95 17 -176 23 -335 25 -115 2 -228 1 -250 -1z"/>
<path d="M5690 1731 c-40 -8 -50 -13 -98 -50 -69 -54 -95 -130 -81 -244 5 -37
15 -80 24 -97 l16 -30 -30 0 c-16 0 -41 6 -56 14 -28 15 -88 31 -223 60 -51
11 -79 13 -92 6 -10 -5 -46 -10 -79 -10 -33 0 -63 -4 -66 -10 -3 -5 -17 -10
-31 -10 -14 0 -37 -8 -52 -18 -15 -10 -53 -36 -84 -57 -32 -20 -58 -41 -58
-45 0 -3 21 -21 48 -38 62 -42 92 -68 92 -81 0 -5 25 -25 55 -43 30 -18 55
-39 55 -46 0 -22 101 -113 143 -128 21 -7 59 -31 83 -53 24 -21 61 -47 82 -57
52 -25 148 -30 196 -10 25 10 51 14 72 10 29 -5 32 -9 24 -24 -26 -49 -4 -89
60 -108 19 -6 55 -18 80 -27 32 -12 69 -16 132 -13 47 1 89 6 93 10 3 3 -9 28
-28 55 -55 78 -55 83 2 83 81 0 175 35 225 83 80 77 101 229 43 316 -15 22
-27 44 -27 47 0 18 97 -10 177 -51 78 -39 99 -45 152 -45 57 0 61 2 61 23 0
12 -11 46 -25 75 -14 30 -25 64 -25 75 0 12 -7 35 -15 51 -8 15 -12 32 -9 37
3 5 -7 14 -22 21 -15 7 -32 26 -39 42 -10 24 -25 33 -96 57 -105 35 -133 36
-160 4 -12 -13 -34 -27 -50 -30 -15 -4 -40 -15 -53 -26 -14 -11 -36 -19 -48
-17 -21 3 -24 10 -30 72 -16 164 -162 261 -338 227z m218 -219 c4 -25 -13 -52
-32 -52 -28 0 -48 25 -40 53 5 24 11 28 38 25 24 -2 32 -8 34 -26z m-441 -337
c57 -31 81 -51 99 -87 20 -39 18 -48 -15 -48 -24 0 -34 8 -54 43 -26 43 -56
77 -92 102 -35 25 8 18 62 -10z"/>
</g>
</svg>
